<svg width="23" height="26" viewBox="0 0 23 26" fill="none" xmlns="http://www.w3.org/2000/svg">
<path fill-rule="evenodd" clip-rule="evenodd" d="M9.34387 3.10419C5.62369 4.04829 2.87486 7.37872 2.87486 11.3449V17.0171C2.87486 17.5398 2.44436 17.9635 1.91755 17.9635C0.858317 17.9635 0 18.8123 0 19.8542V21.2738C0 21.5343 0.212915 21.7453 0.48031 21.7453H22.5197C22.7851 21.7453 23 21.531 23 21.2738V19.8542C23 18.8099 22.1377 17.9635 21.0825 17.9635C20.5537 17.9635 20.1251 17.5431 20.1251 17.0171V11.3449C20.1251 7.37998 17.377 4.04855 13.6561 3.10419V2.12751C13.6561 0.949669 12.6909 0 11.4999 0C10.3113 0 9.34375 0.952623 9.34375 2.12751L9.34387 3.10419ZM8.14594 22.691H14.8542C14.8542 24.5184 13.3524 26 11.5001 26C9.64771 26 8.14594 24.5184 8.14594 22.691Z" fill="black"/>
<path fill-rule="evenodd" clip-rule="evenodd" d="M9.34387 3.10419C5.62369 4.04829 2.87486 7.37872 2.87486 11.3449V17.0171C2.87486 17.5398 2.44436 17.9635 1.91755 17.9635C0.858317 17.9635 0 18.8123 0 19.8542V21.2738C0 21.5343 0.212915 21.7453 0.48031 21.7453H22.5197C22.7851 21.7453 23 21.531 23 21.2738V19.8542C23 18.8099 22.1377 17.9635 21.0825 17.9635C20.5537 17.9635 20.1251 17.5431 20.1251 17.0171V11.3449C20.1251 7.37998 17.377 4.04855 13.6561 3.10419V2.12751C13.6561 0.949669 12.6909 0 11.4999 0C10.3113 0 9.34375 0.952623 9.34375 2.12751L9.34387 3.10419ZM8.14594 22.691H14.8542C14.8542 24.5184 13.3524 26 11.5001 26C9.64771 26 8.14594 24.5184 8.14594 22.691Z" fill="black"/>
</svg>
